PathFileType	4	(X/Y/Z)	C:\Users\chris\Documents\GitHub\baseballds\vids\pitch6_Sports2D\pitch6_Sports2D_px_person00.trc
DataRate	CameraRate	NumFrames	NumMarkers	Units	OrigDataRate	OrigDataStartFrame	OrigNumFrames
30	30	13	22	m	30	46	186
Frame#	Time	Hip			RHip			RKnee			RAnkle			RBigToe			RSmallToe			RHeel			LHip			LKnee			LAnkle			LBigToe			LSmallToe			LHeel			Neck			Head			Nose			RShoulder			RElbow			RWrist			LShoulder			LElbow			LWrist		
		X1	Y1	Z1	X2	Y2	Z2	X3	Y3	Z3	X4	Y4	Z4	X5	Y5	Z5	X6	Y6	Z6	X7	Y7	Z7	X8	Y8	Z8	X9	Y9	Z9	X10	Y10	Z10	X11	Y11	Z11	X12	Y12	Z12	X13	Y13	Z13	X14	Y14	Z14	X15	Y15	Z15	X16	Y16	Z16	X17	Y17	Z17	X18	Y18	Z18	X19	Y19	Z19	X20	Y20	Z20	X21	Y21	Z21	X22	Y22	Z22
46	1.5333333333333332	684.9750248088378	632.7975789125397	0.0	638.6218494343133	641.344420027063	0.0	636.9156679570604	812.5407663458432	0.0	636.0380313351983	967.6005340102421	0.0	632.2984047340444	1020.9489139004421	0.0	605.7976035855984	1016.320710801338	0.0	647.6930601185854	989.2262919786797	0.0	730.254336301918	640.8689833922152	0.0	748.8086923357303	808.9628386590987	0.0	781.8854694252486	952.3580554727436	0.0	755.0297059534568	1008.3596950202893	0.0	785.6978988702409	1007.593977156284	0.0	792.9022794115945	972.4865522227298	0.0	677.6174068445893	373.7268157393326	0.0	693.9806405432066	260.4931637689691	0.0	732.0257267396047	318.8580551480767	0.0	603.0821641277525	419.721861362965	0.0	579.2727685664079	538.2358593377413	0.0	646.9665241646841	559.3821720147521	0.0	756.750621670699	410.4635232102268	0.0	781.69145002337	528.7625009977411	0.0	739.5971251634805	578.975312209874	0.0
47	1.5666666666666667	686.8665721033035	633.9104486725635	0.0	640.8539949107712	642.256902002693	0.0	638.6535474753996	812.9768420651083	0.0	637.4802475740979	967.6554352473398	0.0	634.7646288748242	1020.3069800296417	0.0	608.00721280238	1015.8867231982579	0.0	649.1679345306327	987.8837436902022	0.0	732.4303099668441	641.7118043568047	0.0	750.4218094061731	809.2695708215715	0.0	782.7179969192667	952.5314438803889	0.0	756.982258232445	1008.4625364515331	0.0	787.780813639036	1007.8142971234398	0.0	793.539401659796	973.6735085972115	0.0	680.6076760990613	374.73976800384423	0.0	696.7732987627325	260.75623204763656	0.0	734.5618127345472	319.07845240560243	0.0	604.9316739886716	420.8190472318212	0.0	583.5486837094195	540.3842132786028	0.0	652.3789230222792	561.3489628661349	0.0	759.7981235263261	410.87022322921365	0.0	783.9971902402488	529.2340824860584	0.0	740.7008669164387	579.711848702518	0.0
48	1.6	689.1299792587322	634.8526757320577	0.0	643.0185498894961	643.3307476708549	0.0	640.8163753942817	813.4456203254091	0.0	638.9935289555408	968.360600548178	0.0	637.1391165095009	1021.4881589111144	0.0	609.8358475932611	1017.1675563048576	0.0	650.7580718510944	988.1366209211957	0.0	735.1927204771738	642.7926747285467	0.0	752.637054344664	810.0110346456793	0.0	784.6086364824773	953.7347709356113	0.0	759.0855452590315	1009.8958386942691	0.0	789.2813789799129	1008.5875606007887	0.0	794.9162521610715	974.986264008483	0.0	683.7917603589764	374.8863809421626	0.0	699.3836974998842	261.0611085865345	0.0	737.7067645769944	319.59150675430715	0.0	606.8053982238581	420.9793859475671	0.0	585.3155646087488	541.9233967158121	0.0	655.8251927149032	561.7365221140786	0.0	762.2647105255794	410.6581709844518	0.0	786.9864716209127	529.0618168882892	0.0	742.9802991842048	581.0052622524361	0.0
49	1.6333333333333333	691.3931537121636	636.1895498732334	0.0	645.0730414942697	644.4395420464286	0.0	642.701755559719	813.5794817694627	0.0	639.9663436930956	969.6631628050831	0.0	638.206245467155	1022.2761749979246	0.0	610.4027247964871	1017.8596638141587	0.0	651.7150505586901	990.3033321302894	0.0	737.5691407690443	643.8393237932826	0.0	754.4987014964888	810.5806260835909	0.0	786.1843211113402	954.7769639939463	0.0	760.5662481088378	1010.666266660292	0.0	790.5648342751363	1009.1244309214107	0.0	796.4635629647013	975.1527787628761	0.0	686.4977488714032	375.0240677377158	0.0	701.7896112640883	262.00221215496947	0.0	740.7947741287658	320.6289919345868	0.0	608.8365921942689	420.6135892229795	0.0	585.2778843626893	541.5884898303445	0.0	658.7284146021865	561.6667858811004	0.0	763.906976263427	410.2307979844113	0.0	790.1918903596996	527.8070887189629	0.0	745.8881297189605	581.5228447477975	0.0
50	1.6666666666666667	693.2729300003427	637.2466778015893	0.0	647.0424046254698	644.8875269753174	0.0	643.9906779109131	814.1847875752486	0.0	640.8361713889407	970.6295869680896	0.0	638.5388123541621	1022.6679969900624	0.0	610.6914125301305	1017.9700156932234	0.0	652.3546048068521	991.9668061910435	0.0	739.0243411901399	644.5699598791546	0.0	755.9104835184395	811.3930895321703	0.0	787.2454687628815	955.4335562802746	0.0	761.9520840515061	1011.0098925457773	0.0	792.0151794692238	1009.5461516251441	0.0	798.2428228403226	975.0559507107805	0.0	688.5639998728	375.8508252953444	0.0	703.8086965838595	262.8270924799366	0.0	743.4327097781569	321.55768158580577	0.0	610.7898896207303	420.54599483368605	0.0	586.1373091947927	541.2769419628587	0.0	661.5611644425883	562.0832745733691	0.0	765.3046920420759	410.60377224520175	0.0	792.68721466936	527.6606837715021	0.0	748.4072799232737	581.1002387585991	0.0
51	1.7	694.4915161599743	637.389776988737	0.0	648.7181894710868	644.6151199190837	0.0	644.9809290867389	815.265454556745	0.0	642.0079932844995	970.6800429910445	0.0	639.3411335300734	1023.5474132802341	0.0	611.8259401047999	1018.5030821333874	0.0	653.1340721270241	991.6657944164687	0.0	739.884093620029	645.0210798196947	0.0	756.9043750255182	812.6578180393307	0.0	788.0844520260961	956.4371984226964	0.0	763.5187362939453	1011.8187574308208	0.0	793.658734148503	1010.1829238936143	0.0	799.6535972508573	975.9593709791742	0.0	690.1032667535835	377.1939876706596	0.0	705.6239812297163	263.34469304360283	0.0	745.8742635898274	322.20446635913066	0.0	612.4778419445338	421.2510675248649	0.0	588.677784628534	542.6593739865837	0.0	663.2445941974453	562.7017083749828	0.0	766.9626468059203	411.7690808875172	0.0	794.0687804480535	529.6852562712893	0.0	749.9363779664109	581.0737264482616	0.0
52	1.7333333333333334	695.2430750774043	637.5016419062399	0.0	649.7692332799179	644.8460388804765	0.0	646.0967849847935	816.1319692408542	0.0	642.9813445388264	971.0787193551567	0.0	640.6764870422641	1024.7236243437762	0.0	613.5427128012444	1019.5469080658191	0.0	653.9021211069398	991.7850347075437	0.0	740.8813932083897	645.6958216474812	0.0	757.6908511495386	813.8415517797615	0.0	789.1232156212448	958.2799147121418	0.0	764.8599316896957	1012.9834020889978	0.0	795.0707578137644	1010.990087724613	0.0	800.2884508310511	978.1304264777868	0.0	691.5544811886598	378.0671946846684	0.0	707.5032818385398	264.2332961640855	0.0	748.0322255415115	323.0908226487823	0.0	614.1925370114407	422.2016218218193	0.0	591.6072573958184	544.2907224402406	0.0	664.6124813801882	563.442274035306	0.0	768.731620405601	412.6548051566831	0.0	795.1463311110631	531.9225470901677	0.0	750.4908089784424	582.2522901339535	0.0
53	1.7666666666666666	695.9988243557432	638.2782410574781	0.0	650.2902168680364	646.1864302765125	0.0	647.3259076561358	816.7215765485586	0.0	643.4096210091241	972.7481471560666	0.0	641.7259179126671	1025.539944625967	0.0	615.0638531424504	1020.562577845182	0.0	654.5955603056249	993.8971312662258	0.0	742.1610279201147	646.7996511364557	0.0	758.5984140271722	814.5704038154888	0.0	790.5577461002741	960.0155428040574	0.0	765.8199708570658	1013.9116202210942	0.0	796.0474159371206	1011.679834875325	0.0	800.6722281922623	980.1079267389468	0.0	693.1580090440951	378.1084763396191	0.0	709.540993882966	265.541306786449	0.0	749.7124369080386	324.4177733062306	0.0	616.1782528200304	422.808646766635	0.0	593.797141137278	544.5416558005461	0.0	666.8982208620899	564.9457507028435	0.0	770.2133842079454	412.598899014646	0.0	796.4220175213892	532.4366031559068	0.0	750.6336612343786	583.9567658322554	0.0
54	1.8	697.0287365631975	639.1192756660364	0.0	650.7947207003814	647.7402306049456	0.0	648.4329044382248	817.535870748957	0.0	644.0184901302108	974.3853986265996	0.0	642.0393731819146	1026.298238673441	0.0	616.142751922406	1021.4489737615296	0.0	655.7260402082087	995.5440245410003	0.0	743.5382843910113	647.8910240927914	0.0	759.7030482141904	815.1451922286035	0.0	791.9041796919898	960.6576112095252	0.0	767.0360462862924	1014.65693137037	0.0	797.0407508937401	1012.1785185446433	0.0	801.350900431366	980.5626538572185	0.0	694.724757451599	378.1459160224747	0.0	711.6691779221652	266.8740462920161	0.0	751.4439142187634	325.7349511457812	0.0	618.0414544934332	423.2600367063976	0.0	595.1774232181231	544.3615812812016	0.0	669.2317385436154	567.4186372717246	0.0	771.4863916123315	412.18866124102976	0.0	797.5839409877135	531.421910099327	0.0	751.7581769797115	585.492593202015	0.0
55	1.8333333333333333	698.3447801784189	639.7204013001913	0.0	651.5182945668324	648.8126136232145	0.0	649.3467748739043	818.7890090681668	0.0	645.4441558267338	974.8373290183788	0.0	642.007833805272	1027.7372290434016	0.0	616.7613326997082	1022.6270124828444	0.0	657.3640548282797	994.8436820053432	0.0	745.0747667550124	648.7399366725771	0.0	760.8357398098028	815.9206073796254	0.0	792.7255808199452	960.6949814231491	0.0	768.8312514855319	1015.6198435274877	0.0	798.3745195519658	1012.7357856728521	0.0	802.2740235533313	979.9396719885283	0.0	696.177369169796	378.8954964450746	0.0	713.5837222862717	268.02935564108964	0.0	753.4718759394543	326.58890328972836	0.0	619.4843302981262	423.89413806965433	0.0	596.309793798925	545.043496714502	0.0	670.7208807620159	569.9836304708197	0.0	772.9424656347279	412.5486092894728	0.0	798.3947050874763	530.4247937522887	0.0	754.1523476673091	587.1154666287456	0.0
56	1.8666666666666667	699.8411850214004	640.5202417990417	0.0	652.4021318269577	649.7262140359429	0.0	650.2329831724211	819.9078363506621	0.0	647.1304500123968	975.0337547623371	0.0	642.4182123142277	1029.4887098699694	0.0	617.0661137921085	1024.120542011804	0.0	658.496018869471	993.6600193094864	0.0	746.7070770747131	649.6301518700237	0.0	761.8965705756841	816.7613001856412	0.0	793.5582049490804	960.9725257384805	0.0	770.3990295400695	1016.6625010856602	0.0	799.711706979929	1013.5280231510441	0.0	803.3681033074856	979.2575956876794	0.0	697.6291128536049	380.0173450837017	0.0	715.0830279127166	268.68005302840606	0.0	754.9949634681373	326.99426238383995	0.0	620.7904721386121	424.5991581849118	0.0	597.4466121149048	545.9069093241721	0.0	671.7188050256764	571.7220383587195	0.0	774.5158248951965	414.03530685952774	0.0	798.8533381003542	530.9092670883432	0.0	756.0816766178853	588.7911059564908	0.0
57	1.9	701.3112713424788	641.4563499116304	0.0	653.4744735781846	650.4889645810147	0.0	651.3003564018528	820.2724469176214	0.0	648.1677320656828	975.8381520196453	0.0	643.670467917545	1030.3187869306128	0.0	617.7791023565256	1025.1366397544884	0.0	658.6164046895423	994.0383532792878	0.0	748.0960011010854	650.4353146154765	0.0	762.9417384557875	817.3175724953785	0.0	794.9576648739928	961.3978143014035	0.0	771.0667407546199	1017.3391132574051	0.0	800.6939089656178	1014.3880143714347	0.0	804.6571047641057	979.0997974759682	0.0	699.0226629523568	380.7696274243277	0.0	716.3367450456052	268.7907429579615	0.0	755.4442472442072	327.32500159531423	0.0	621.9703803492281	425.1782717198646	0.0	597.8180877740147	545.9954494719018	0.0	671.5429436392566	572.2366584742987	0.0	775.8522267530142	415.93619177391565	0.0	799.4871537735205	533.0146280561754	0.0	756.8522033983351	589.6006043862573	0.0
58	1.9333333333333333	702.6299182604325	641.665866665819	0.0	654.71373603109	650.2114402229828	0.0	652.4086191705611	820.1507352231722	0.0	648.6521917867381	976.3926102029297	0.0	645.4683986455981	1029.943008605349	0.0	619.4263891758849	1025.207292435676	0.0	658.8915758660953	995.2240179681685	0.0	749.094336335212	650.3519446654785	0.0	763.9646585604122	817.5870521457149	0.0	796.2600675907445	961.5072717240382	0.0	771.2554726974204	1017.689551135306	0.0	801.2798233077198	1015.1144426111326	0.0	805.7079026524813	979.7834875853888	0.0	700.2754110919802	380.90007624196636	0.0	717.4330501648681	268.8258158942042	0.0	755.4579965642032	327.8477752573799	0.0	622.7064493699012	425.82509652516615	0.0	596.7560275072716	546.0017927955828	0.0	669.7203694972535	571.4108184113463	0.0	777.137624714192	417.4833403617512	0.0	801.1858890231993	536.0010790146666	0.0	757.9632175114482	589.5270625622045	0.0
